<?xml version="1.0" encoding="UTF-8" standalone="no"?>
<!DOCTYPE svg PUBLIC "-//W3C//DTD SVG 1.1//EN" "http://www.w3.org/Graphics/SVG/1.1/DTD/svg11.dtd">
<svg width="100%" height="100%" viewBox="0 0 336 65" version="1.1" xmlns="http://www.w3.org/2000/svg" xmlns:xlink="http://www.w3.org/1999/xlink" xml:space="preserve" xmlns:serif="http://www.serif.com/" style="fill-rule:evenodd;clip-rule:evenodd;">
    <g id="Sketch004" transform="matrix(1,0,0,-1,3.28819,62.8157)">
        <path id="Sketch004_w0000" d="M328.819,1.417L328.819,45.354L253.701,59.528L174.331,59.528L165.827,49.606L96.378,49.606L90.709,53.858L45.354,53.858L0,1.417L328.819,1.417Z" style="fill:none;fill-rule:nonzero;stroke:black;stroke-width:0.99px;"/>
        <circle cx="316.063" cy="12.047" r="3.189" style="fill:none;stroke:black;stroke-width:0.99px;"/>
        <circle cx="45.354" cy="36.142" r="3.189" style="fill:none;stroke:black;stroke-width:0.99px;"/>
    </g>
    <g>
        <path d="M218.277,36.537C215.581,35.004 213.056,33.568 213.056,33.568L202.768,39.523L197.883,36.745L233.052,16.386L246.903,24.264L242.066,27.064L233.1,21.965L218.456,30.442L223.677,33.411L218.277,36.537Z" style="fill:none;stroke:black;stroke-width:1px;stroke-linecap:round;stroke-linejoin:round;stroke-miterlimit:1.5;"/>
        <g transform="matrix(-1,-1.22465e-16,1.22465e-16,-1,452.014,65.4155)">
            <path d="M218.277,36.537C215.581,35.004 213.056,33.568 213.056,33.568L202.768,39.523L197.883,36.745L233.052,16.386L246.903,24.264L242.066,27.064L233.1,21.965L218.456,30.442L223.677,33.411L218.277,36.537Z" style="fill:none;stroke:black;stroke-width:1px;stroke-linecap:round;stroke-linejoin:round;stroke-miterlimit:1.5;"/>
        </g>
    </g>
</svg>
