<?xml version="1.0" encoding="UTF-8" standalone="no"?>
<!DOCTYPE svg PUBLIC "-//W3C//DTD SVG 1.1//EN" "http://www.w3.org/Graphics/SVG/1.1/DTD/svg11.dtd">
<svg width="100%" height="100%" viewBox="0 0 405 103" version="1.1" xmlns="http://www.w3.org/2000/svg" xmlns:xlink="http://www.w3.org/1999/xlink" xml:space="preserve" xmlns:serif="http://www.serif.com/" style="fill-rule:evenodd;clip-rule:evenodd;">
    <g id="Sketch" transform="matrix(1,0,0,-1,3.9685,100.346)">
        <path id="Sketch_w0000" d="M396.85,1.417L396.85,86.457L319.345,86.457L342.285,46.772L326.229,46.772L298.355,94.961L173.736,94.961L189.896,67.043L159.373,67.043L142.392,96.378L16.927,96.378L0,66.614L0,1.417L396.85,1.417Z" style="fill:none;fill-rule:nonzero;stroke:black;stroke-width:0.99px;"/>
        <circle cx="215.433" cy="21.26" r="3.189" style="fill:none;stroke:black;stroke-width:0.99px;"/>
        <path d="M13.117,52.975L17.192,45.935C17.192,45.935 15.755,43.41 14.222,40.714L17.348,35.314L20.318,40.535L28.795,25.891L23.696,16.925L26.496,12.088L34.373,25.939L17.311,55.413C17.345,55.599 17.362,55.789 17.362,55.984C17.362,57.744 15.933,59.173 14.173,59.173C12.413,59.173 10.984,57.744 10.984,55.984C10.984,54.594 11.875,53.411 13.117,52.975Z" style="fill:none;stroke:black;stroke-width:0.99px;"/>
        <circle cx="364.252" cy="67.323" r="3.189" style="fill:none;stroke:black;stroke-width:0.99px;"/>
        <path id="Sketch_w0005" d="M77.198,86.457L100.63,86.457C113.126,78.712 120.751,65.016 120.751,50.315C120.751,41.194 117.816,32.46 112.604,25.294L77.198,86.457Z" style="fill:none;fill-rule:nonzero;stroke:black;stroke-width:0.99px;"/>
        <path id="Sketch_w00051" serif:id="Sketch_w0005" d="M79.869,14.173L56.693,14.173C44.197,21.918 36.572,35.613 36.572,50.315C36.572,59.353 39.454,68.011 44.577,75.14L79.869,14.173Z" style="fill:none;fill-rule:nonzero;stroke:black;stroke-width:0.99px;"/>
    </g>
    <g transform="matrix(1.24517e-16,-2.03352,4.7614,2.91552e-16,-41.1534,1428.6)">
        <g transform="matrix(0.886843,0,0,0.802281,-6.52924,69.5009)">
            <g transform="matrix(0.554505,0,0,0.261782,693.288,1.91488)">
                <path d="M174.267,40.803C170.063,43.236 164.894,46.249 164.894,46.249L170.115,49.218L164.715,52.344C162.02,50.811 159.494,49.375 159.494,49.375L149.206,55.33L144.321,52.552L174.267,35.211L174.267,40.803Z" style="fill:none;stroke:black;stroke-width:1px;stroke-linecap:round;stroke-linejoin:round;stroke-miterlimit:1.5;"/>
            </g>
            <g transform="matrix(-0.554505,-3.2059e-17,6.79073e-17,-0.261782,943.932,19.0394)">
                <path d="M277.747,5.709L286.613,0.579L300.465,8.456L295.628,11.256L286.661,6.157C286.661,6.157 281.845,8.925 277.747,11.297L277.747,5.709Z" style="fill:none;stroke:black;stroke-width:1px;stroke-linecap:round;stroke-linejoin:round;stroke-miterlimit:1.5;"/>
            </g>
        </g>
        <g transform="matrix(0.886843,0,0,0.802281,-36.7405,75.0998)">
            <g transform="matrix(0.554505,0,0,0.261782,693.288,1.91488)">
                <path d="M157.607,53.767L190.109,34.951L203.96,42.828L199.123,45.628L190.157,40.529L175.512,49.006L180.734,51.976L175.334,55.102C172.638,53.569 170.112,52.132 170.112,52.132L159.825,58.087L157.607,56.828L157.607,53.767Z" style="fill:none;stroke:black;stroke-width:1px;stroke-linecap:round;stroke-linejoin:round;stroke-miterlimit:1.5;"/>
            </g>
            <g transform="matrix(-0.554505,-3.2059e-17,6.79073e-17,-0.261782,943.932,19.0394)">
                <path d="M261.22,17.972C258.524,16.439 255.999,15.003 255.999,15.003L245.711,20.958L240.826,18.18L275.995,-2.178L289.846,5.699L285.009,8.499L276.043,3.4L261.399,11.877L266.62,14.846L261.22,17.972Z" style="fill:none;stroke:black;stroke-width:1px;stroke-linecap:round;stroke-linejoin:round;stroke-miterlimit:1.5;"/>
            </g>
        </g>
        <g transform="matrix(0.886843,0,0,0.802281,-18.1957,57.1655)">
            <g transform="matrix(0.554505,0,0,0.261782,693.288,1.91488)">
                <path d="M168.633,52.246C165.937,50.712 163.411,49.276 163.411,49.276L153.124,55.231L148.239,52.453L183.407,32.095L197.259,39.972L192.422,42.772L183.455,37.673L168.811,46.15L174.033,49.12L168.633,52.246Z" style="fill:none;stroke:black;stroke-width:1px;stroke-linecap:round;stroke-linejoin:round;stroke-miterlimit:1.5;"/>
            </g>
            <g transform="matrix(-0.554505,-3.2059e-17,6.79073e-17,-0.261782,943.932,19.0394)">
                <path d="M267.921,20.828C265.226,19.295 262.7,17.859 262.7,17.859L252.412,23.814L247.527,21.036L282.696,0.678L296.547,8.555L291.71,11.355L282.744,6.256L268.1,14.733L273.321,17.703L267.921,20.828Z" style="fill:none;stroke:black;stroke-width:1px;stroke-linecap:round;stroke-linejoin:round;stroke-miterlimit:1.5;"/>
            </g>
        </g>
        <g transform="matrix(0.886843,0,0,0.802281,-41.9494,61.928)">
            <g transform="matrix(0.554505,0,0,0.261782,693.288,1.91488)">
                <path d="M168.215,46.188L180.894,38.835L194.746,46.712L189.909,49.512L180.942,44.413C180.942,44.413 172.195,49.466 168.215,51.77L168.215,46.188Z" style="fill:none;stroke:black;stroke-width:1px;stroke-linecap:round;stroke-linejoin:round;stroke-miterlimit:1.5;"/>
            </g>
            <g transform="matrix(-0.554505,-3.2059e-17,6.79073e-17,-0.261782,943.932,19.0394)">
                <path d="M283.799,0.34C280.119,2.47 270.613,7.993 270.613,7.993L275.835,10.962L270.435,14.088C267.739,12.555 265.213,11.119 265.213,11.119L254.925,17.074L250.04,14.296L283.796,-5.222L283.799,0.34Z" style="fill:none;stroke:black;stroke-width:1px;stroke-linecap:round;stroke-linejoin:round;stroke-miterlimit:1.5;"/>
            </g>
        </g>
        <g transform="matrix(0.886843,0,0,0.802281,0.894259,36.4208)">
            <g transform="matrix(0.554505,0,0,0.261782,693.288,1.91488)">
                <path d="M167.679,52.784C164.228,54.782 161.002,56.676 161.002,56.676L166.223,59.645L160.823,62.771C158.127,61.238 155.602,59.801 155.602,59.801L145.314,65.757L140.429,62.978L167.679,47.177L167.679,52.784Z" style="fill:none;stroke:black;stroke-width:1px;stroke-linecap:round;stroke-linejoin:round;stroke-miterlimit:1.5;"/>
            </g>
            <g transform="matrix(-0.554505,-3.2059e-17,6.79073e-17,-0.261782,943.932,19.0394)">
                <path d="M284.335,-6.266L290.506,-9.847L304.357,-1.97L299.52,0.83L290.554,-4.269C290.554,-4.269 287.575,-2.572 284.335,-0.697L284.335,-6.266Z" style="fill:none;stroke:black;stroke-width:1px;stroke-linecap:round;stroke-linejoin:round;stroke-miterlimit:1.5;"/>
            </g>
        </g>
        <g transform="matrix(0.886843,0,0,0.802281,-23.4046,43.9937)">
            <g transform="matrix(0.554505,0,0,0.261782,693.288,1.91488)">
                <path d="M159.419,56.13C156.723,54.596 154.197,53.16 154.197,53.16L143.91,59.115L139.025,56.337L174.193,35.979L188.045,43.856L183.207,46.656L174.241,41.557L159.597,50.034L164.819,53.004L159.419,56.13Z" style="fill:none;stroke:black;stroke-width:1px;stroke-linecap:round;stroke-linejoin:round;stroke-miterlimit:1.5;"/>
            </g>
            <g transform="matrix(-0.554505,-3.2059e-17,6.79073e-17,-0.261782,943.932,19.0394)">
                <path d="M277.136,16.945C274.44,15.411 271.914,13.975 271.914,13.975L261.626,19.93L256.741,17.152L291.91,-3.206L305.761,4.671L300.924,7.471L291.958,2.372L277.314,10.849L282.536,13.819L277.136,16.945Z" style="fill:none;stroke:black;stroke-width:1px;stroke-linecap:round;stroke-linejoin:round;stroke-miterlimit:1.5;"/>
            </g>
        </g>
        <g transform="matrix(0.886843,0,0,0.802281,-53.6159,49.5926)">
            <g transform="matrix(0.554505,0,0,0.261782,693.288,1.91488)">
                <path d="M191.939,42.798L198.663,46.614L193.826,49.414C193.826,49.414 193.018,48.981 191.939,48.368L191.939,42.798Z" style="fill:none;stroke:black;stroke-width:1px;stroke-linecap:round;stroke-linejoin:round;stroke-miterlimit:1.5;"/>
            </g>
            <g transform="matrix(-0.554505,-3.2059e-17,6.79073e-17,-0.261782,943.932,19.0394)">
                <path d="M260.075,11.901L251.008,17.173L246.123,14.395L260.075,6.455L260.075,11.901Z" style="fill:none;stroke:black;stroke-width:1px;stroke-linecap:round;stroke-linejoin:round;stroke-miterlimit:1.5;"/>
            </g>
        </g>
        <g transform="matrix(0.886843,0,0,0.802281,-9.47142,24.2083)">
            <g transform="matrix(0.554505,0,0,0.261782,693.288,1.91488)">
                <path d="M190.121,50.219L185.884,52.614L176.918,47.515L162.274,55.992L167.495,58.961L162.095,62.087C159.399,60.554 156.874,59.118 156.874,59.118L146.586,65.073L141.701,62.295L176.87,41.937L190.121,49.413L190.121,50.219Z" style="fill:none;stroke:black;stroke-width:1px;stroke-linecap:round;stroke-linejoin:round;stroke-miterlimit:1.5;"/>
            </g>
            <g transform="matrix(-0.554505,-3.2059e-17,6.79073e-17,-0.261782,943.932,19.0394)">
                <path d="M261.893,6.663L289.234,-9.164L303.085,-1.287L298.248,1.513L289.282,-3.586L274.638,4.891L279.859,7.861L274.459,10.987C271.763,9.454 269.238,8.017 269.238,8.017L261.893,12.254L261.893,6.663Z" style="fill:none;stroke:black;stroke-width:1px;stroke-linecap:round;stroke-linejoin:round;stroke-miterlimit:1.5;"/>
            </g>
        </g>
        <g transform="matrix(0.886843,0,0,0.802281,-33.7703,31.7812)">
            <g transform="matrix(0.554505,0,0,0.261782,693.288,1.91488)">
                <path d="M151.522,49.17L175.465,35.295L189.317,43.173L184.48,45.973L175.513,40.873L160.869,49.35L166.091,52.32L160.691,55.446C157.995,53.913 155.469,52.476 155.469,52.476L151.522,54.762L151.522,49.17Z" style="fill:none;stroke:black;stroke-width:1px;stroke-linecap:round;stroke-linejoin:round;stroke-miterlimit:1.5;"/>
            </g>
            <g transform="matrix(-0.554505,-3.2059e-17,6.79073e-17,-0.261782,943.932,19.0394)">
                <path d="M300.491,7.645L299.652,8.155L290.686,3.056L276.042,11.533L281.263,14.502L275.863,17.628C273.168,16.095 270.642,14.659 270.642,14.659L260.354,20.614L255.469,17.836L290.638,-2.522L300.491,3.057L300.491,7.645Z" style="fill:none;stroke:black;stroke-width:1px;stroke-linecap:round;stroke-linejoin:round;stroke-miterlimit:1.5;"/>
            </g>
        </g>
        <g transform="matrix(0.886843,0,0,0.802281,-14.6803,11.0365)">
            <g transform="matrix(0.554505,0,0,0.261782,693.288,1.91488)">
                <path d="M200.757,34.883C199.414,34.119 198.476,33.586 198.476,33.586L188.189,39.541L183.304,36.763L200.757,26.643L200.757,34.883Z" style="fill:none;stroke:black;stroke-width:1px;stroke-linecap:round;stroke-linejoin:round;stroke-miterlimit:1.5;"/>
            </g>
            <g transform="matrix(-0.554505,-3.2059e-17,6.79073e-17,-0.261782,943.932,19.0394)">
                <path d="M251.307,18.423L261.482,24.246L256.645,27.046C256.645,27.046 253.794,25.424 251.307,24.01L251.307,18.423Z" style="fill:none;stroke:black;stroke-width:1px;stroke-linecap:round;stroke-linejoin:round;stroke-miterlimit:1.5;"/>
            </g>
        </g>
        <g transform="matrix(0.886843,0,0,0.802281,-14.6803,11.0365)">
            <g transform="matrix(0.554505,0,0,0.261782,693.288,1.91488)">
                <path d="M152.881,65.971C150.185,64.438 147.66,63.002 147.66,63.002L137.372,68.957L132.487,66.179L167.656,45.821L181.507,53.698L176.67,56.498L167.704,51.399L153.06,59.876L158.281,62.845L152.881,65.971Z" style="fill:none;stroke:black;stroke-width:1px;stroke-linecap:round;stroke-linejoin:round;stroke-miterlimit:1.5;"/>
            </g>
            <g transform="matrix(-0.554505,-3.2059e-17,6.79073e-17,-0.261782,943.932,19.0394)">
                <path d="M283.673,7.103C280.977,5.57 278.452,4.133 278.452,4.133L268.164,10.089L263.279,7.31L298.448,-13.048L312.299,-5.17L307.462,-2.37L298.496,-7.47L283.852,1.007L289.073,3.977L283.673,7.103Z" style="fill:none;stroke:black;stroke-width:1px;stroke-linecap:round;stroke-linejoin:round;stroke-miterlimit:1.5;"/>
            </g>
        </g>
        <g transform="matrix(0.886843,0,0,0.802281,-38.9792,18.6094)">
            <g transform="matrix(0.554505,0,0,0.261782,693.288,1.91488)">
                <path d="M162.131,41.588L166.251,39.179L180.103,47.056L175.266,49.856L166.299,44.757C166.299,44.757 164.512,45.826 162.131,47.204L162.131,41.588Z" style="fill:none;stroke:black;stroke-width:1px;stroke-linecap:round;stroke-linejoin:round;stroke-miterlimit:1.5;"/>
            </g>
            <g transform="matrix(-0.554505,-3.2059e-17,6.79073e-17,-0.261782,943.932,19.0394)">
                <path d="M289.883,11.006L285.078,13.744C282.382,12.211 279.856,10.775 279.856,10.775L269.568,16.73L264.683,13.952L289.883,-0.627L289.883,4.914C287.266,6.428 285.256,7.649 285.256,7.649L289.883,10.224L289.883,11.006Z" style="fill:none;stroke:black;stroke-width:1px;stroke-linecap:round;stroke-linejoin:round;stroke-miterlimit:1.5;"/>
            </g>
        </g>
        <g transform="matrix(0.491759,0,0,0.210022,558.258,6.39849)">
            <path d="M235.406,17.693L246.903,24.264L242.066,27.064L233.1,21.965L218.456,30.442L223.677,33.411L218.277,36.537C215.581,35.004 213.056,33.568 213.056,33.568L202.768,39.523L197.883,36.745L230.852,17.693L235.406,17.693Z" style="fill:none;stroke:black;stroke-width:1px;stroke-linecap:round;stroke-linejoin:round;stroke-miterlimit:1.5;"/>
        </g>
    </g>
</svg>
