<?xml version="1.0" encoding="UTF-8" standalone="no"?>
<!DOCTYPE svg PUBLIC "-//W3C//DTD SVG 1.1//EN" "http://www.w3.org/Graphics/SVG/1.1/DTD/svg11.dtd">
<svg width="100%" height="100%" viewBox="0 0 405 103" version="1.1" xmlns="http://www.w3.org/2000/svg" xmlns:xlink="http://www.w3.org/1999/xlink" xml:space="preserve" xmlns:serif="http://www.serif.com/" style="fill-rule:evenodd;clip-rule:evenodd;">
    <g id="Sketch" transform="matrix(1,0,0,-1,3.9685,100.346)">
        <path id="Sketch_w0000" d="M396.85,1.417L396.85,86.457L330.236,86.457L330.236,46.772L304.724,46.772L304.724,86.457C304.724,91.122 300.886,94.961 296.22,94.961L211.89,94.961L186.378,72.992L135.354,72.992L112.677,96.378L29.764,96.378L0,66.614L0,1.417L396.85,1.417Z" style="fill:none;fill-rule:nonzero;stroke:black;stroke-width:0.99px;"/>
        <circle cx="360" cy="38.268" r="4.961" style="fill:none;stroke:black;stroke-width:0.99px;"/>
        <circle cx="215.433" cy="21.26" r="3.189" style="fill:none;stroke:black;stroke-width:0.99px;"/>
        <circle cx="14.173" cy="55.984" r="3.189" style="fill:none;stroke:black;stroke-width:0.99px;"/>
        <circle cx="364.252" cy="67.323" r="3.189" style="fill:none;stroke:black;stroke-width:0.99px;"/>
        <path id="Sketch_w0005" d="M56.693,86.457L100.63,86.457C113.126,78.712 120.751,65.016 120.751,50.315C120.751,35.613 113.126,21.918 100.63,14.173L56.693,14.173C44.197,21.918 36.572,35.613 36.572,50.315C36.572,65.016 44.197,78.712 56.693,86.457Z" style="fill:none;fill-rule:nonzero;stroke:black;stroke-width:0.99px;"/>
        <path id="Sketch_w0006" d="M12.756,42.52C10.423,42.52 8.504,40.6 8.504,38.268C8.504,35.935 10.423,34.016 12.756,34.016L15.591,34.016C17.923,34.016 19.843,35.935 19.843,38.268C19.843,40.6 17.923,42.52 15.591,42.52L12.756,42.52Z" style="fill:none;fill-rule:nonzero;stroke:black;stroke-width:0.99px;"/>
    </g>
</svg>
